<?xml version="1.0" encoding="utf-8"?>
<!-- Generator: Adobe Illustrator 17.0.0, SVG Export Plug-In . SVG Version: 6.00 Build 0)  -->
<!DOCTYPE svg PUBLIC "-//W3C//DTD SVG 1.1//EN" "http://www.w3.org/Graphics/SVG/1.1/DTD/svg11.dtd">
<svg version="1.1" id="Layer_1" xmlns="http://www.w3.org/2000/svg" xmlns:xlink="http://www.w3.org/1999/xlink" x="0px" y="0px"
	 width="2512.982px" height="2512.982px" viewBox="-256.491 -255.991 2512.982 2512.982"
	 enable-background="new -256.491 -255.991 2512.982 2512.982" xml:space="preserve">
<circle fill="#BE1E2D" cx="1000" cy="1000.5" r="1256.491"/>
<line display="none" fill="none" stroke="#231F20" stroke-width="20" stroke-miterlimit="10" x1="503.542" y1="1382.001" x2="1498.458" y2="1382.001"/>
<g display="none">
	<path display="inline" fill="#FFFFFF" d="M501.122,778.447c0-4.661,3.759-8.856,8.459-8.856h114.664
		c90.698,0,164.947,73.18,164.947,162.672c0,90.425-74.25,163.604-164.947,163.604H509.581c-4.7,0-8.459-4.195-8.459-8.856V778.447z
		 M619.546,1026.884c53.102,0,91.637-41.484,91.637-94.62c0-52.67-38.535-94.155-91.637-94.155h-45.114v188.775H619.546z"/>
	<path display="inline" fill="#FFFFFF" d="M860.621,778.447c0-4.661,3.76-8.856,8.929-8.856h113.254
		c57.802,0,105.265,46.611,105.265,103.011c0,57.797-47.463,104.874-104.795,104.874h-49.343v109.536
		c0,4.661-4.229,8.856-8.929,8.856H869.55c-5.169,0-8.929-4.195-8.929-8.856V778.447z M978.575,909.424
		c20.207,0,37.125-15.848,37.125-36.822c0-19.577-16.918-34.493-37.125-34.493h-44.644v71.315H978.575z"/>
	<path display="inline" fill="#FFFFFF" d="M1179.239,772.388c0.47-4.195,4.699-7.458,8.458-7.458h7.519
		c2.35,0,6.58,1.864,7.989,4.661L1312.23,970.95h0.94l109.025-201.359c1.41-2.797,5.64-4.661,7.989-4.661h7.519
		c3.759,0,7.989,3.263,8.459,7.458l53.102,313.226c0.94,6.059-3.289,10.254-8.928,10.254h-55.452c-4.229,0-8.459-3.729-8.929-7.457
		l-21.147-144.028h-0.94l-78.949,151.02c-1.41,2.797-5.64,5.127-7.989,5.127h-8.459c-2.819,0-6.579-2.33-7.989-5.127l-79.419-151.02
		h-0.939l-20.678,144.028c-0.47,3.729-4.23,7.457-8.928,7.457h-55.453c-5.639,0-9.868-4.195-8.928-10.254L1179.239,772.388z"/>
</g>
<g display="none">
	<path display="inline" fill="#FFFFFF" d="M502.252,1170.541c0-1.85,1.48-3.515,3.515-3.515h44.584
		c22.754,0,41.438,18.499,41.438,40.883c0,22.94-18.685,41.624-41.254,41.624H531.11v43.474c0,1.849-1.665,3.515-3.515,3.515
		h-21.829c-2.035,0-3.515-1.665-3.515-3.515v-122.466H502.252z M548.685,1222.524c7.955,0,14.615-6.29,14.615-14.615
		c0-7.77-6.66-13.689-14.615-13.689H531.11v28.304H548.685z"/>
	<path display="inline" fill="#FFFFFF" d="M697.787,1165.175c36.998,0,66.598,29.784,66.598,66.782
		c0,36.999-29.599,66.413-66.598,66.413s-66.413-29.414-66.413-66.413C631.374,1194.96,660.788,1165.175,697.787,1165.175z
		 M697.787,1268.772c20.349,0,36.998-16.65,36.998-36.814c0-20.348-16.65-37.183-36.998-37.183
		c-20.164,0-36.814,16.835-36.814,37.183C660.973,1252.122,677.623,1268.772,697.787,1268.772z"/>
	<path display="inline" fill="#FFFFFF" d="M816.364,1170.541c0-1.85,1.48-3.515,3.33-3.515h45.139
		c35.704,0,64.932,29.043,64.932,64.562c0,35.889-29.228,64.933-64.932,64.933h-45.139c-1.849,0-3.33-1.665-3.33-3.515V1170.541z
		 M862.982,1269.142c20.905,0,36.074-16.465,36.074-37.554c0-20.904-15.169-37.368-36.074-37.368h-17.759v74.922H862.982z"/>
	<path display="inline" fill="#FFFFFF" d="M1039.277,1165.175c18.5,0,32.189,5.735,44.769,17.205c1.665,1.48,1.665,3.7,0.185,5.18
		l-14.429,14.984c-1.295,1.294-3.33,1.294-4.625,0c-6.844-6.105-15.909-9.435-24.974-9.435c-20.904,0-36.259,17.39-36.259,38.109
		c0,20.533,15.539,37.553,36.444,37.553c8.695,0,18.13-3.145,24.789-8.88c1.295-1.109,3.7-1.109,4.81,0.185l14.429,15.354
		c1.295,1.295,1.11,3.7-0.185,4.995c-12.58,12.21-28.489,17.945-44.954,17.945c-36.998,0-66.783-29.414-66.783-66.413
		C972.494,1194.96,1002.279,1165.175,1039.277,1165.175z"/>
	<path display="inline" fill="#FFFFFF" d="M1119.376,1291.711l57.904-124.5c0.554-1.11,1.849-2.035,3.145-2.035h1.849
		c1.295,0,2.591,0.925,3.145,2.035l57.904,124.5c1.11,2.406-0.37,4.81-3.145,4.81h-20.535c-3.33,0-4.81-1.11-6.475-4.625
		l-6.659-14.614h-50.318l-6.659,14.799c-0.925,2.22-2.961,4.44-6.661,4.44h-20.349
		C1119.746,1296.521,1118.266,1294.116,1119.376,1291.711z M1195.409,1252.122l-14.06-30.524h-0.184l-13.875,30.524H1195.409z"/>
	<path display="inline" fill="#FFFFFF" d="M1280.688,1278.946l8.695-15.354c1.479-2.405,4.994-2.034,6.289-1.109
		c0.74,0.37,14.059,10.174,26.269,10.174c7.401,0,12.765-4.625,12.765-11.099c0-7.77-6.474-13.69-19.054-18.684
		c-15.909-6.29-35.889-18.685-35.889-40.884c0-18.314,14.244-36.814,42.733-36.814c19.239,0,34.039,9.805,39.589,13.875
		c2.22,1.294,1.85,4.625,1.11,5.919l-9.435,14.245c-1.294,2.035-4.624,3.7-6.289,2.405c-1.665-0.925-15.169-11.099-26.454-11.099
		c-6.66,0-11.655,4.44-11.655,9.434c0,6.845,5.549,12.025,20.163,17.945c14.43,5.734,37.369,17.02,37.369,42.178
		c0,19.054-16.465,38.294-43.659,38.294c-24.049,0-37.368-9.99-41.623-14.245
		C1279.762,1282.277,1279.207,1281.537,1280.688,1278.946z"/>
	<path display="inline" fill="#FFFFFF" d="M1435.709,1194.22h-26.455c-2.035,0-3.515-1.665-3.515-3.515v-20.164
		c0-1.85,1.48-3.515,3.515-3.515h82.138c2.034,0,3.515,1.664,3.515,3.515v20.164c0,1.849-1.48,3.515-3.515,3.515h-26.455v98.786
		c0,1.849-1.664,3.515-3.515,3.515h-22.199c-1.85,0-3.515-1.665-3.515-3.515L1435.709,1194.22L1435.709,1194.22z"/>
</g>
<g display="none">
	<path display="inline" fill="#870016" d="M507.118,1208.453c0-3.96,3.24-6.84,6.84-6.84h16.92c3.96,0,5.4,2.159,6.48,4.319
		l6.48,15.84c7.2-10.439,20.52-23.76,39.24-23.76c19.8,0,33.84,7.2,28.8,15.48l-17.64,28.8c-1.44,2.521-3.96,4.681-7.92,3.24
		c-1.8-0.72-5.4-1.8-8.64-1.8c-10.8,0-19.08,8.279-19.08,20.52v74.521c0,4.319-2.16,6.84-7.92,6.84h-36.72
		c-3.6,0-6.84-3.24-6.84-6.84L507.118,1208.453L507.118,1208.453z"/>
	<path display="inline" fill="#870016" d="M693.594,1198.012c36.72,0,68.4,28.08,68.4,67.681c0,2.521-0.36,7.2-0.72,9.72
		c-0.36,3.6-3.6,6.12-6.84,6.12h-86.4c1.08,9.72,9,23.76,27.72,23.76c9,0,19.44-4.319,25.2-8.64c3.24-2.52,6.84-2.52,9,0l18,21.6
		c2.16,2.881,2.88,7.2-0.36,10.44c-12.6,12.601-30.6,20.521-53.28,20.521c-42.84,0-75.24-34.201-75.24-75.601
		C619.074,1232.932,651.114,1198.012,693.594,1198.012z M711.234,1253.453c-0.72-9.36-9.72-16.92-19.08-16.92
		c-9.72,0-18,7.56-19.44,16.92H711.234z"/>
	<path display="inline" fill="#870016" d="M849.112,1198.012c12.24,0,25.56,4.32,29.88,6.84v-104.4c0-3.6,3.24-6.84,6.84-6.84h39.96
		c3.6,0,6.84,3.24,6.84,6.84v238.321c0,3.6-3.24,6.84-6.84,6.84h-16.92c-3.6,0-6.12-3.24-7.56-7.2l-4.32-11.88
		c0,0-16.56,22.681-48.24,22.681c-40.68,0-71.28-34.201-71.28-75.601C777.472,1222.852,810.592,1198.012,849.112,1198.012z
		 M855.952,1302.773c16.56,0,28.8-12.96,28.8-29.521c0-16.199-12.24-28.8-28.8-28.8s-29.16,12.601-29.16,28.8
		C826.793,1289.813,839.392,1302.773,855.952,1302.773z"/>
	<path display="inline" fill="#870016" d="M1074.43,1446.773c0,3.601-3.239,6.84-6.84,6.84h-39.96c-3.6,0-6.84-3.239-6.84-6.84
		v-238.32c0-3.601,3.24-6.84,6.84-6.84h16.92c3.601,0,6.12,3.239,7.561,7.2l4.319,11.879c0,0,16.561-22.68,48.24-22.68
		c40.68,0,71.28,34.2,71.28,75.601c0,50.76-33.12,75.601-71.641,75.601c-12.239,0-25.56-4.32-29.88-6.841L1074.43,1446.773
		L1074.43,1446.773z M1097.47,1302.773c16.561,0,29.16-12.601,29.16-28.8c0-16.561-12.6-29.521-29.16-29.521
		s-28.8,12.96-28.8,29.521C1068.671,1290.173,1080.911,1302.773,1097.47,1302.773z"/>
	<path display="inline" fill="#870016" d="M1268.108,1198.012c41.04,0,74.88,34.561,74.88,75.24c0,41.4-33.84,75.961-74.88,75.961
		s-74.88-34.561-74.88-75.961C1193.228,1232.573,1227.068,1198.012,1268.108,1198.012z M1268.108,1302.773
		c15.84,0,28.44-13.32,28.44-29.521c0-15.84-12.601-28.8-28.44-28.8s-28.439,12.96-28.439,28.8
		C1239.669,1289.453,1252.268,1302.773,1268.108,1302.773z"/>
	<path display="inline" fill="#870016" d="M1431.905,1198.012c12.24,0,25.56,4.32,29.88,6.84v-104.4c0-3.6,3.24-6.84,6.84-6.84
		h39.96c3.601,0,6.84,3.24,6.84,6.84v238.321c0,3.6-3.239,6.84-6.84,6.84h-16.92c-3.6,0-6.12-3.24-7.56-7.2l-4.32-11.88
		c0,0-16.561,22.681-48.24,22.681c-40.68,0-71.28-34.201-71.28-75.601C1360.264,1222.852,1393.384,1198.012,1431.905,1198.012z
		 M1438.745,1302.773c16.56,0,28.8-12.96,28.8-29.521c0-16.199-12.24-28.8-28.8-28.8c-16.561,0-29.16,12.601-29.16,28.8
		C1409.585,1289.813,1422.184,1302.773,1438.745,1302.773z"/>
</g>
<g>
	<g>
		<path fill="#FCCB0C" d="M310.891,356.452h-4.001c-1.539,0-2.769-1.385-2.769-2.924v-13.694c0-1.692,1.231-2.924,2.769-2.924h4.001
			v-17.078c0-1.539,1.385-2.924,2.924-2.924h16.464c1.539,0,2.77,1.385,2.77,2.924v17.078h11.386c1.692,0,2.924,1.231,2.924,2.924
			v13.694c0,1.539-1.231,2.924-2.924,2.924h-11.387v19.233c0,3.385,2.308,3.693,4.154,3.693c2.154,0,4.462-0.77,6.001-1.077
			c1.539-0.308,2.924,0.308,3.385,2l3.385,12.771c0.308,1.385-0.461,3.077-2,3.54c0,0-10.924,3.385-18.618,3.385
			c-11.693,0-18.464-7.385-18.464-21.388L310.891,356.452L310.891,356.452L310.891,356.452z"/>
		<path fill="#FCCB0C" d="M361.357,293.674c0-1.539,1.384-2.924,2.924-2.924h17.079c1.539,0,2.924,1.385,2.924,2.924v45.237
			c4.616-2.308,9.693-3.539,14.31-3.539c19.387,0,29.389,15.233,29.389,32.312v27.85c0,1.539-1.385,2.924-2.924,2.924h-16.311
			c-1.692,0-2.924-1.385-2.924-2.924v-28.158c0-6.771-4.462-12.156-11.232-12.156c-4.924,0-10.309,2.769-10.309,12.156v28.158
			c0,2-0.77,2.924-3.385,2.924h-16.617c-1.539,0-2.924-1.385-2.924-2.924L361.357,293.674L361.357,293.674z"/>
		<path fill="#FCCB0C" d="M470.137,335.371c15.694,0,29.235,12.002,29.235,28.927c0,1.077-0.154,3.077-0.308,4.154
			c-0.154,1.539-1.539,2.616-2.924,2.616h-36.929c0.462,4.155,3.846,10.156,11.848,10.156c3.846,0,8.31-1.847,10.771-3.693
			c1.385-1.077,2.924-1.077,3.846,0l7.693,9.232c0.923,1.231,1.231,3.077-0.154,4.462c-5.385,5.386-13.078,8.77-22.772,8.77
			c-18.311,0-32.158-14.617-32.158-32.312C438.287,350.297,451.98,335.371,470.137,335.371z M477.677,359.068
			c-0.308-4.001-4.155-7.232-8.155-7.232c-4.155,0-7.693,3.231-8.309,7.232H477.677z"/>
	</g>
	<g>
		<path fill="#FFFFFF" d="M305.68,1382.247c0-5.298,4.335-9.151,9.151-9.151h22.637c5.298,0,7.224,2.889,8.67,5.779l8.67,21.193
			c9.633-13.967,27.454-31.789,52.5-31.789c26.49,0,45.275,9.633,38.532,20.711l-23.601,38.532
			c-1.927,3.373-5.298,6.262-10.596,4.335c-2.408-0.963-7.224-2.407-11.56-2.407c-14.449,0-25.527,11.077-25.527,27.453v99.702
			c0,5.779-2.889,9.151-10.596,9.151h-49.128c-4.817,0-9.151-4.335-9.151-9.151L305.68,1382.247L305.68,1382.247z"/>
		<path fill="#FFFFFF" d="M555.168,1368.279c49.129,0,91.513,37.569,91.513,90.551c0,3.373-0.482,9.633-0.963,13.004
			c-0.482,4.816-4.817,8.188-9.151,8.188H520.97c1.445,13.004,12.041,31.789,37.087,31.789c12.041,0,26.009-5.779,33.715-11.559
			c4.335-3.37,9.151-3.37,12.041,0l24.083,28.899c2.89,3.854,3.854,9.633-0.482,13.969c-16.857,16.858-40.94,27.454-71.283,27.454
			c-57.317,0-100.665-45.758-100.665-101.147C455.467,1414.999,498.333,1368.279,555.168,1368.279z M578.769,1442.453
			c-0.964-12.524-13.004-22.637-25.527-22.637c-13.004,0-24.083,10.114-26.009,22.637H578.769z"/>
		<path fill="#FFFFFF" d="M763.237,1368.279c16.376,0,34.197,5.78,39.976,9.151v-139.678c0-4.816,4.335-9.151,9.151-9.151h53.463
			c4.817,0,9.151,4.335,9.151,9.151v318.852c0,4.816-4.334,9.151-9.151,9.151H843.19c-4.817,0-8.188-4.335-10.114-9.633
			l-5.78-15.894c0,0-22.156,30.344-64.54,30.344c-54.426,0-95.367-45.758-95.367-101.147
			C667.389,1401.512,711.701,1368.279,763.237,1368.279z M772.388,1508.439c22.156,0,38.533-17.34,38.533-39.496
			c0-21.673-16.376-38.532-38.533-38.532c-22.157,0-39.013,16.858-39.013,38.532C733.375,1491.1,750.232,1508.439,772.388,1508.439z
			"/>
		<path fill="#FFFFFF" d="M1064.692,1701.098c0,4.817-4.333,9.151-9.151,9.151h-53.463c-4.816,0-9.151-4.334-9.151-9.151v-318.851
			c0-4.817,4.335-9.151,9.151-9.151h22.637c4.817,0,8.188,4.334,10.115,9.633l5.779,15.892c0,0,22.157-30.343,64.541-30.343
			c54.426,0,95.367,45.757,95.367,101.147c0,67.912-44.312,101.147-95.849,101.147c-16.375,0-34.196-5.78-39.976-9.152v139.679
			L1064.692,1701.098L1064.692,1701.098z M1095.518,1508.439c22.157,0,39.014-16.858,39.014-38.532
			c0-22.157-16.857-39.496-39.014-39.496c-22.155,0-38.532,17.339-38.532,39.496
			C1056.986,1491.581,1073.362,1508.439,1095.518,1508.439z"/>
		<path fill="#FFFFFF" d="M1323.816,1368.279c54.907,0,100.183,46.239,100.183,100.665c0,55.39-45.275,101.629-100.183,101.629
			c-54.908,0-100.183-46.239-100.183-101.629C1223.633,1414.517,1268.908,1368.279,1323.816,1368.279z M1323.816,1508.439
			c21.193,0,38.051-17.821,38.051-39.496c0-21.193-16.858-38.532-38.051-38.532c-21.192,0-38.049,17.339-38.049,38.532
			C1285.767,1490.618,1302.623,1508.439,1323.816,1508.439z"/>
		<path fill="#FFFFFF" d="M1542.962,1368.279c16.376,0,34.196,5.78,39.976,9.151v-139.678c0-4.816,4.335-9.151,9.151-9.151h53.463
			c4.817,0,9.151,4.335,9.151,9.151v318.852c0,4.816-4.334,9.151-9.151,9.151h-22.637c-4.816,0-8.188-4.335-10.115-9.633
			l-5.78-15.894c0,0-22.157,30.344-64.542,30.344c-54.426,0-95.367-45.758-95.367-101.147
			C1447.113,1401.512,1491.425,1368.279,1542.962,1368.279z M1552.112,1508.439c22.155,0,38.532-17.34,38.532-39.496
			c0-21.673-16.376-38.532-38.532-38.532c-22.157,0-39.014,16.858-39.014,38.532
			C1513.099,1491.1,1529.957,1508.439,1552.112,1508.439z"/>
	</g>
	<g>
		<g>
			<path fill="#870016" d="M350.084,557.941c0-8.886,7.109-16.883,16.883-16.883H574.01c104.855,0,191.048,71.976,191.048,165.278
				c0,68.421-61.313,118.183-103.077,140.398c47.096,19.549,119.071,63.09,119.071,144.841c0,99.523-87.971,171.498-193.714,171.498
				h-220.37c-9.774,0-16.883-7.997-16.883-16.883L350.084,557.941L350.084,557.941z M558.015,793.419
				c33.767,0,62.201-28.435,62.201-63.979c0-35.544-28.435-60.424-62.201-60.424h-69.31v124.403H558.015z M569.566,1036.004
				c34.656,0,63.979-28.435,63.979-64.867c0-35.544-38.21-62.202-72.864-62.202h-71.976v127.069H569.566z"/>
			<path fill="#870016" d="M905.95,557.941c0-8.886,7.997-16.883,16.883-16.883h106.631c8.886,0,16.883,7.997,16.883,16.883v588.249
				c0,8.886-7.997,16.883-16.883,16.883H922.833c-8.886,0-16.883-7.997-16.883-16.883V557.941z"/>
			<path fill="#870016" d="M1468.399,533.061c74.642,0,156.393,31.101,216.818,83.528c7.997,6.22,8.886,16.883,1.776,23.992
				l-70.199,74.642c-7.108,6.22-16.883,6.22-23.991,0.888c-33.768-31.101-72.865-42.653-116.406-42.653
				c-96.857,0-175.053,81.75-175.053,179.496c0,96.857,79.085,176.829,175.94,176.829c25.768,0,52.427-3.554,79.085-14.217v-51.538
				h-55.981c-9.775,0-16.883-7.109-16.883-15.994v-87.971c0-9.774,7.108-16.883,16.883-16.883h178.606
				c8.886,0,15.995,7.997,15.995,16.883l0.888,239.031c0,4.443-3.554,11.552-7.108,14.218c0,0-91.525,57.758-220.372,57.758
				c-176.828,0-319.005-140.398-319.005-318.116C1149.394,675.236,1291.57,533.061,1468.399,533.061z"/>
		</g>
		<g>
			<path fill="#FFFFFF" d="M310.638,501.351c0-8.886,7.109-16.883,16.883-16.883h207.042c104.855,0,191.048,71.976,191.048,165.278
				c0,68.421-61.313,118.183-103.077,140.398c47.096,19.549,119.071,63.09,119.071,144.841c0,99.523-87.971,171.498-193.714,171.498
				h-220.37c-9.774,0-16.883-7.997-16.883-16.883L310.638,501.351L310.638,501.351z M518.569,736.828
				c33.767,0,62.201-28.435,62.201-63.979c0-35.544-28.435-60.424-62.201-60.424h-69.31v124.403H518.569z M530.12,979.415
				c34.656,0,63.979-28.435,63.979-64.867c0-35.544-38.21-62.202-72.864-62.202h-71.976v127.069L530.12,979.415L530.12,979.415z"/>
			<path fill="#FFFFFF" d="M871.854,501.351c0-8.886,7.997-16.883,16.883-16.883h106.631c8.886,0,16.883,7.997,16.883,16.883V1089.6
				c0,8.886-7.997,16.883-16.883,16.883H888.738c-8.886,0-16.883-7.997-16.883-16.883V501.351z"/>
			<path fill="#FFFFFF" d="M1430.29,476.471c74.642,0,156.393,31.101,216.818,83.528c7.997,6.22,8.886,16.883,1.776,23.992
				l-70.199,74.642c-7.108,6.22-16.883,6.22-23.991,0.888c-33.768-31.101-72.865-42.653-116.406-42.653
				c-96.857,0-175.053,81.75-175.053,179.496c0,96.857,79.085,176.83,175.94,176.83c25.769,0,52.427-3.554,79.085-14.217v-51.539
				h-55.981c-9.775,0-16.883-7.109-16.883-15.994v-87.971c0-9.774,7.108-16.883,16.883-16.883h178.606
				c8.886,0,15.995,7.997,15.995,16.883l0.888,239.031c0,4.443-3.554,11.552-7.108,14.218c0,0-91.525,57.758-220.372,57.758
				c-176.828,0-319.005-140.398-319.005-318.116C1111.286,618.646,1253.462,476.471,1430.29,476.471z"/>
		</g>
	</g>
</g>
</svg>
