<?xml version="1.0" encoding="utf-8"?>
<!-- Generator: Adobe Illustrator 17.0.0, SVG Export Plug-In . SVG Version: 6.00 Build 0)  -->
<!DOCTYPE svg PUBLIC "-//W3C//DTD SVG 1.1//EN" "http://www.w3.org/Graphics/SVG/1.1/DTD/svg11.dtd">
<svg version="1.1" id="Layer_1" xmlns="http://www.w3.org/2000/svg" xmlns:xlink="http://www.w3.org/1999/xlink" x="0px" y="0px"
	 width="1448.116px" height="1476.982px" viewBox="275.942 262.009 1448.116 1476.982"
	 enable-background="new 275.942 262.009 1448.116 1476.982" xml:space="preserve">
<line display="none" fill="none" stroke="#231F20" stroke-width="20" stroke-miterlimit="10" x1="503.542" y1="1382.001" x2="1498.458" y2="1382.001"/>
<g display="none">
	<path display="inline" fill="#FFFFFF" d="M501.122,778.447c0-4.661,3.759-8.856,8.459-8.856h114.664
		c90.698,0,164.947,73.18,164.947,162.672c0,90.425-74.25,163.604-164.947,163.604H509.581c-4.7,0-8.459-4.195-8.459-8.856V778.447z
		 M619.546,1026.884c53.102,0,91.637-41.484,91.637-94.62c0-52.67-38.535-94.155-91.637-94.155h-45.114v188.775H619.546z"/>
	<path display="inline" fill="#FFFFFF" d="M860.621,778.447c0-4.661,3.76-8.856,8.929-8.856h113.254
		c57.802,0,105.265,46.611,105.265,103.011c0,57.797-47.463,104.874-104.795,104.874h-49.343v109.536
		c0,4.661-4.229,8.856-8.929,8.856H869.55c-5.169,0-8.929-4.195-8.929-8.856V778.447z M978.575,909.424
		c20.207,0,37.125-15.848,37.125-36.822c0-19.577-16.918-34.493-37.125-34.493h-44.644v71.315H978.575z"/>
	<path display="inline" fill="#FFFFFF" d="M1179.239,772.388c0.47-4.195,4.699-7.458,8.458-7.458h7.519
		c2.35,0,6.58,1.864,7.989,4.661L1312.23,970.95h0.94l109.025-201.359c1.41-2.797,5.64-4.661,7.989-4.661h7.519
		c3.759,0,7.989,3.263,8.459,7.458l53.102,313.226c0.94,6.059-3.289,10.254-8.928,10.254h-55.452c-4.229,0-8.459-3.729-8.929-7.457
		l-21.147-144.028h-0.94l-78.949,151.02c-1.41,2.797-5.64,5.127-7.989,5.127h-8.459c-2.819,0-6.579-2.33-7.989-5.127l-79.419-151.02
		h-0.939l-20.678,144.028c-0.47,3.729-4.23,7.457-8.928,7.457h-55.453c-5.639,0-9.868-4.195-8.928-10.254L1179.239,772.388z"/>
</g>
<g display="none">
	<path display="inline" fill="#FFFFFF" d="M502.252,1170.541c0-1.85,1.48-3.515,3.515-3.515h44.584
		c22.754,0,41.438,18.499,41.438,40.883c0,22.94-18.685,41.624-41.254,41.624H531.11v43.474c0,1.849-1.665,3.515-3.515,3.515
		h-21.829c-2.035,0-3.515-1.665-3.515-3.515v-122.466H502.252z M548.685,1222.524c7.955,0,14.615-6.29,14.615-14.615
		c0-7.77-6.66-13.689-14.615-13.689H531.11v28.304H548.685z"/>
	<path display="inline" fill="#FFFFFF" d="M697.787,1165.175c36.998,0,66.598,29.784,66.598,66.782
		c0,36.999-29.599,66.413-66.598,66.413s-66.413-29.414-66.413-66.413C631.374,1194.96,660.788,1165.175,697.787,1165.175z
		 M697.787,1268.772c20.349,0,36.998-16.65,36.998-36.814c0-20.348-16.65-37.183-36.998-37.183
		c-20.164,0-36.814,16.835-36.814,37.183C660.973,1252.122,677.623,1268.772,697.787,1268.772z"/>
	<path display="inline" fill="#FFFFFF" d="M816.364,1170.541c0-1.85,1.48-3.515,3.33-3.515h45.139
		c35.704,0,64.932,29.043,64.932,64.562c0,35.889-29.228,64.933-64.932,64.933h-45.139c-1.849,0-3.33-1.665-3.33-3.515V1170.541z
		 M862.982,1269.142c20.905,0,36.074-16.465,36.074-37.554c0-20.904-15.169-37.368-36.074-37.368h-17.759v74.922H862.982z"/>
	<path display="inline" fill="#FFFFFF" d="M1039.277,1165.175c18.5,0,32.189,5.735,44.769,17.205c1.665,1.48,1.665,3.7,0.185,5.18
		l-14.429,14.984c-1.295,1.294-3.33,1.294-4.625,0c-6.844-6.105-15.909-9.435-24.974-9.435c-20.904,0-36.259,17.39-36.259,38.109
		c0,20.533,15.539,37.553,36.444,37.553c8.695,0,18.13-3.145,24.789-8.88c1.295-1.109,3.7-1.109,4.81,0.185l14.429,15.354
		c1.295,1.295,1.11,3.7-0.185,4.995c-12.58,12.21-28.489,17.945-44.954,17.945c-36.998,0-66.783-29.414-66.783-66.413
		C972.494,1194.96,1002.279,1165.175,1039.277,1165.175z"/>
	<path display="inline" fill="#FFFFFF" d="M1119.376,1291.711l57.904-124.5c0.554-1.11,1.849-2.035,3.145-2.035h1.849
		c1.295,0,2.591,0.925,3.145,2.035l57.904,124.5c1.11,2.406-0.37,4.81-3.145,4.81h-20.535c-3.33,0-4.81-1.11-6.475-4.625
		l-6.659-14.614h-50.318l-6.659,14.799c-0.925,2.22-2.961,4.44-6.661,4.44h-20.349
		C1119.746,1296.521,1118.266,1294.116,1119.376,1291.711z M1195.409,1252.122l-14.06-30.524h-0.184l-13.875,30.524H1195.409z"/>
	<path display="inline" fill="#FFFFFF" d="M1280.688,1278.946l8.695-15.354c1.479-2.405,4.994-2.034,6.289-1.109
		c0.74,0.37,14.059,10.174,26.269,10.174c7.401,0,12.765-4.625,12.765-11.099c0-7.77-6.474-13.69-19.054-18.684
		c-15.909-6.29-35.889-18.685-35.889-40.884c0-18.314,14.244-36.814,42.733-36.814c19.239,0,34.039,9.805,39.589,13.875
		c2.22,1.294,1.85,4.625,1.11,5.919l-9.435,14.245c-1.294,2.035-4.624,3.7-6.289,2.405c-1.665-0.925-15.169-11.099-26.454-11.099
		c-6.66,0-11.655,4.44-11.655,9.434c0,6.845,5.549,12.025,20.163,17.945c14.43,5.734,37.369,17.02,37.369,42.178
		c0,19.054-16.465,38.294-43.659,38.294c-24.049,0-37.368-9.99-41.623-14.245
		C1279.762,1282.277,1279.207,1281.537,1280.688,1278.946z"/>
	<path display="inline" fill="#FFFFFF" d="M1435.709,1194.22h-26.455c-2.035,0-3.515-1.665-3.515-3.515v-20.164
		c0-1.85,1.48-3.515,3.515-3.515h82.138c2.034,0,3.515,1.664,3.515,3.515v20.164c0,1.849-1.48,3.515-3.515,3.515h-26.455v98.786
		c0,1.849-1.664,3.515-3.515,3.515h-22.199c-1.85,0-3.515-1.665-3.515-3.515L1435.709,1194.22L1435.709,1194.22z"/>
</g>
<g display="none">
	<path display="inline" fill="#870016" d="M507.118,1208.453c0-3.96,3.24-6.84,6.84-6.84h16.92c3.96,0,5.4,2.159,6.48,4.319
		l6.48,15.84c7.2-10.439,20.52-23.76,39.24-23.76c19.8,0,33.84,7.2,28.8,15.48l-17.64,28.8c-1.44,2.521-3.96,4.681-7.92,3.24
		c-1.8-0.72-5.4-1.8-8.64-1.8c-10.8,0-19.08,8.279-19.08,20.52v74.521c0,4.319-2.16,6.84-7.92,6.84h-36.72
		c-3.6,0-6.84-3.24-6.84-6.84L507.118,1208.453L507.118,1208.453z"/>
	<path display="inline" fill="#870016" d="M693.594,1198.012c36.72,0,68.4,28.08,68.4,67.681c0,2.521-0.36,7.2-0.72,9.72
		c-0.36,3.6-3.6,6.12-6.84,6.12h-86.4c1.08,9.72,9,23.76,27.72,23.76c9,0,19.44-4.319,25.2-8.64c3.24-2.52,6.84-2.52,9,0l18,21.6
		c2.16,2.881,2.88,7.2-0.36,10.44c-12.6,12.601-30.6,20.521-53.28,20.521c-42.84,0-75.24-34.201-75.24-75.601
		C619.074,1232.932,651.114,1198.012,693.594,1198.012z M711.234,1253.453c-0.72-9.36-9.72-16.92-19.08-16.92
		c-9.72,0-18,7.56-19.44,16.92H711.234z"/>
	<path display="inline" fill="#870016" d="M849.112,1198.012c12.24,0,25.56,4.32,29.88,6.84v-104.4c0-3.6,3.24-6.84,6.84-6.84h39.96
		c3.6,0,6.84,3.24,6.84,6.84v238.321c0,3.6-3.24,6.84-6.84,6.84h-16.92c-3.6,0-6.12-3.24-7.56-7.2l-4.32-11.88
		c0,0-16.56,22.681-48.24,22.681c-40.68,0-71.28-34.201-71.28-75.601C777.472,1222.852,810.592,1198.012,849.112,1198.012z
		 M855.952,1302.773c16.56,0,28.8-12.96,28.8-29.521c0-16.199-12.24-28.8-28.8-28.8s-29.16,12.601-29.16,28.8
		C826.793,1289.813,839.392,1302.773,855.952,1302.773z"/>
	<path display="inline" fill="#870016" d="M1074.43,1446.773c0,3.601-3.239,6.84-6.84,6.84h-39.96c-3.6,0-6.84-3.239-6.84-6.84
		v-238.32c0-3.601,3.24-6.84,6.84-6.84h16.92c3.601,0,6.12,3.239,7.561,7.2l4.319,11.879c0,0,16.561-22.68,48.24-22.68
		c40.68,0,71.28,34.2,71.28,75.601c0,50.76-33.12,75.601-71.641,75.601c-12.239,0-25.56-4.32-29.88-6.841L1074.43,1446.773
		L1074.43,1446.773z M1097.47,1302.773c16.561,0,29.16-12.601,29.16-28.8c0-16.561-12.6-29.521-29.16-29.521
		s-28.8,12.96-28.8,29.521C1068.671,1290.173,1080.911,1302.773,1097.47,1302.773z"/>
	<path display="inline" fill="#870016" d="M1268.108,1198.012c41.04,0,74.88,34.561,74.88,75.24c0,41.4-33.84,75.961-74.88,75.961
		s-74.88-34.561-74.88-75.961C1193.228,1232.573,1227.068,1198.012,1268.108,1198.012z M1268.108,1302.773
		c15.84,0,28.44-13.32,28.44-29.521c0-15.84-12.601-28.8-28.44-28.8s-28.439,12.96-28.439,28.8
		C1239.669,1289.453,1252.268,1302.773,1268.108,1302.773z"/>
	<path display="inline" fill="#870016" d="M1431.905,1198.012c12.24,0,25.56,4.32,29.88,6.84v-104.4c0-3.6,3.24-6.84,6.84-6.84
		h39.96c3.601,0,6.84,3.24,6.84,6.84v238.321c0,3.6-3.239,6.84-6.84,6.84h-16.92c-3.6,0-6.12-3.24-7.56-7.2l-4.32-11.88
		c0,0-16.561,22.681-48.24,22.681c-40.68,0-71.28-34.201-71.28-75.601C1360.264,1222.852,1393.384,1198.012,1431.905,1198.012z
		 M1438.745,1302.773c16.56,0,28.8-12.96,28.8-29.521c0-16.199-12.24-28.8-28.8-28.8c-16.561,0-29.16,12.601-29.16,28.8
		C1409.585,1289.813,1422.184,1302.773,1438.745,1302.773z"/>
</g>
<g>
	<g>
		<path fill="#FCCB0C" d="M282.986,330.371h-4.163c-1.601,0-2.881-1.441-2.881-3.042V313.08c0-1.761,1.281-3.042,2.881-3.042h4.163
			v-17.77c0-1.601,1.441-3.042,3.042-3.042h17.131c1.601,0,2.882,1.441,2.882,3.042v17.77h11.847c1.761,0,3.042,1.281,3.042,3.042
			v14.249c0,1.601-1.281,3.042-3.042,3.042H306.04v20.012c0,3.522,2.401,3.843,4.322,3.843c2.241,0,4.643-0.801,6.244-1.121
			c1.601-0.32,3.042,0.32,3.522,2.081l3.522,13.288c0.32,1.441-0.48,3.202-2.081,3.683c0,0-11.366,3.522-19.372,3.522
			c-12.167,0-19.212-7.684-19.212-22.254v-23.054H282.986z"/>
		<path fill="#FCCB0C" d="M335.495,265.051c0-1.601,1.44-3.042,3.042-3.042h17.771c1.601,0,3.042,1.441,3.042,3.042v47.069
			c4.803-2.401,10.086-3.682,14.889-3.682c20.172,0,30.579,15.85,30.579,33.621v28.978c0,1.601-1.441,3.042-3.042,3.042h-16.971
			c-1.761,0-3.042-1.441-3.042-3.042v-29.298c0-7.045-4.643-12.648-11.687-12.648c-5.123,0-10.726,2.881-10.726,12.648v29.298
			c0,2.081-0.801,3.042-3.522,3.042h-17.29c-1.601,0-3.042-1.441-3.042-3.042L335.495,265.051L335.495,265.051z"/>
		<path fill="#FCCB0C" d="M448.68,308.437c16.33,0,30.419,12.488,30.419,30.098c0,1.121-0.16,3.202-0.32,4.322
			c-0.16,1.601-1.601,2.722-3.042,2.722h-38.424c0.481,4.323,4.002,10.567,12.328,10.567c4.002,0,8.646-1.922,11.207-3.843
			c1.441-1.121,3.042-1.121,4.002,0l8.005,9.606c0.96,1.281,1.281,3.202-0.16,4.643c-5.603,5.604-13.608,9.125-23.694,9.125
			c-19.052,0-33.46-15.209-33.46-33.62C415.54,323.967,429.788,308.437,448.68,308.437z M456.525,333.093
			c-0.32-4.163-4.323-7.525-8.485-7.525c-4.323,0-8.005,3.362-8.645,7.525H456.525z"/>
	</g>
	<g>
		<path fill="#FFFFFF" d="M277.563,1397.706c0-5.513,4.511-9.522,9.522-9.522h23.554c5.513,0,7.517,3.006,9.021,6.013l9.021,22.051
			c10.023-14.533,28.566-33.076,54.626-33.076c27.563,0,47.108,10.023,40.092,21.55l-24.557,40.092
			c-2.005,3.509-5.513,6.516-11.025,4.511c-2.505-1.002-7.517-2.505-12.028-2.505c-15.034,0-26.561,11.526-26.561,28.565v103.739
			c0,6.013-3.006,9.522-11.025,9.522h-51.117c-5.012,0-9.522-4.511-9.522-9.522v-181.418H277.563z"/>
		<path fill="#FFFFFF" d="M537.154,1383.172c51.118,0,95.219,39.09,95.219,94.218c0,3.509-0.501,10.023-1.002,13.531
			c-0.501,5.011-5.012,8.52-9.522,8.52H501.572c1.504,13.531,12.529,33.076,38.589,33.076c12.529,0,27.062-6.013,35.08-12.027
			c4.511-3.507,9.522-3.507,12.529,0l25.058,30.069c3.007,4.01,4.01,10.023-0.501,14.534c-17.54,17.541-42.598,28.566-74.17,28.566
			c-59.638,0-104.741-47.611-104.741-105.243C433.416,1431.784,478.018,1383.172,537.154,1383.172z M561.711,1460.35
			c-1.003-13.031-13.531-23.554-26.561-23.554c-13.531,0-25.058,10.524-27.062,23.554H561.711z"/>
		<path fill="#FFFFFF" d="M753.649,1383.172c17.039,0,35.582,6.014,41.595,9.522V1247.36c0-5.011,4.511-9.522,9.522-9.522h55.628
			c5.012,0,9.522,4.511,9.522,9.522v331.764c0,5.011-4.51,9.522-9.522,9.522H836.84c-5.012,0-8.52-4.511-10.524-10.023
			l-6.014-16.538c0,0-23.053,31.573-67.154,31.573c-56.63,0-99.229-47.611-99.229-105.243
			C653.92,1417.751,700.026,1383.172,753.649,1383.172z M763.171,1529.008c23.053,0,40.093-18.042,40.093-41.095
			c0-22.551-17.039-40.092-40.093-40.092s-40.593,17.541-40.593,40.092C722.578,1510.967,740.118,1529.008,763.171,1529.008z"/>
		<path fill="#FFFFFF" d="M1067.312,1729.469c0,5.012-4.509,9.522-9.522,9.522h-55.628c-5.011,0-9.522-4.509-9.522-9.522v-331.763
			c0-5.012,4.511-9.522,9.522-9.522h23.554c5.012,0,8.52,4.509,10.525,10.023l6.013,16.536c0,0,23.054-31.572,67.155-31.572
			c56.63,0,99.229,47.61,99.229,105.243c0,70.662-46.106,105.243-99.73,105.243c-17.038,0-35.581-6.014-41.595-9.523v145.335
			H1067.312z M1099.386,1529.008c23.054,0,40.594-17.541,40.594-40.092c0-23.054-17.54-41.095-40.594-41.095
			c-23.052,0-40.092,18.041-40.092,41.095C1059.294,1511.467,1076.333,1529.008,1099.386,1529.008z"/>
		<path fill="#FFFFFF" d="M1336.929,1383.172c57.131,0,104.24,48.111,104.24,104.741c0,57.633-47.108,105.744-104.24,105.744
			c-57.131,0-104.24-48.111-104.24-105.744C1232.689,1431.283,1279.797,1383.172,1336.929,1383.172z M1336.929,1529.008
			c22.051,0,39.592-18.543,39.592-41.095c0-22.051-17.541-40.092-39.592-40.092c-22.05,0-39.59,18.041-39.59,40.092
			C1297.339,1510.465,1314.878,1529.008,1336.929,1529.008z"/>
		<path fill="#FFFFFF" d="M1564.949,1383.172c17.039,0,35.581,6.014,41.595,9.522V1247.36c0-5.011,4.511-9.522,9.522-9.522h55.628
			c5.012,0,9.522,4.511,9.522,9.522v331.764c0,5.011-4.509,9.522-9.522,9.522h-23.554c-5.011,0-8.52-4.511-10.524-10.023
			l-6.014-16.538c0,0-23.054,31.573-67.155,31.573c-56.63,0-99.229-47.611-99.229-105.243
			C1465.219,1417.751,1511.325,1383.172,1564.949,1383.172z M1574.47,1529.008c23.052,0,40.092-18.042,40.092-41.095
			c0-22.551-17.039-40.092-40.092-40.092c-23.054,0-40.594,17.541-40.594,40.092
			C1533.877,1510.967,1551.417,1529.008,1574.47,1529.008z"/>
	</g>
	<g>
		<g>
			<path fill="#870016" d="M323.766,540.02c0-9.246,7.397-17.567,17.567-17.567h215.426c109.101,0,198.784,74.891,198.784,171.971
				c0,71.192-63.796,122.969-107.251,146.083c49.003,20.341,123.893,65.645,123.893,150.706
				c0,103.553-91.533,178.443-201.558,178.443H341.333c-10.17,0-17.567-8.321-17.567-17.567L323.766,540.02L323.766,540.02z
				 M540.117,785.033c35.134,0,64.72-29.586,64.72-66.57c0-36.983-29.586-62.871-64.72-62.871H468v129.441H540.117z
				 M552.136,1037.442c36.059,0,66.57-29.586,66.57-67.494c0-36.983-39.757-64.721-75.815-64.721H468v132.215H552.136z"/>
			<path fill="#870016" d="M902.141,540.02c0-9.246,8.321-17.567,17.567-17.567h110.949c9.246,0,17.567,8.321,17.567,17.567v612.07
				c0,9.246-8.321,17.567-17.567,17.567H919.708c-9.246,0-17.567-8.321-17.567-17.567V540.02z"/>
			<path fill="#870016" d="M1487.367,514.132c77.665,0,162.726,32.36,225.598,86.91c8.321,6.472,9.246,17.567,1.848,24.964
				l-73.042,77.665c-7.396,6.472-17.567,6.472-24.962,0.924c-35.135-32.36-75.816-44.38-121.12-44.38
				c-100.779,0-182.142,85.061-182.142,186.765c0,100.779,82.288,183.99,183.065,183.99c26.812,0,54.55-3.698,82.288-14.793v-53.625
				h-58.248c-10.171,0-17.567-7.397-17.567-16.642v-91.533c0-10.17,7.396-17.567,17.567-17.567h185.839
				c9.246,0,16.643,8.321,16.643,17.567l0.924,248.711c0,4.623-3.698,12.02-7.396,14.794c0,0-95.231,60.097-229.296,60.097
				c-183.989,0-331.923-146.083-331.923-330.998C1155.444,662.064,1303.377,514.132,1487.367,514.132z"/>
		</g>
		<g>
			<path fill="#FFFFFF" d="M282.722,481.138c0-9.246,7.397-17.567,17.567-17.567h215.426c109.101,0,198.784,74.891,198.784,171.971
				c0,71.192-63.796,122.969-107.251,146.083c49.003,20.341,123.893,65.645,123.893,150.706
				c0,103.553-91.533,178.443-201.558,178.443H300.289c-10.17,0-17.567-8.321-17.567-17.567L282.722,481.138L282.722,481.138z
				 M499.073,726.151c35.134,0,64.72-29.586,64.72-66.57c0-36.983-29.586-62.871-64.72-62.871h-72.117v129.441H499.073z
				 M511.092,978.561c36.059,0,66.57-29.586,66.57-67.494c0-36.983-39.757-64.721-75.815-64.721h-74.891v132.215L511.092,978.561
				L511.092,978.561z"/>
			<path fill="#FFFFFF" d="M866.665,481.138c0-9.246,8.321-17.567,17.567-17.567h110.949c9.246,0,17.567,8.321,17.567,17.567v612.07
				c0,9.246-8.321,17.567-17.567,17.567H884.232c-9.246,0-17.567-8.321-17.567-17.567V481.138z"/>
			<path fill="#FFFFFF" d="M1447.715,455.25c77.665,0,162.726,32.36,225.598,86.91c8.321,6.472,9.246,17.567,1.848,24.964
				l-73.042,77.665c-7.396,6.472-17.567,6.472-24.962,0.924c-35.135-32.36-75.816-44.38-121.12-44.38
				c-100.779,0-182.142,85.061-182.142,186.765c0,100.779,82.288,183.991,183.065,183.991c26.812,0,54.55-3.698,82.288-14.793
				V903.67H1481c-10.171,0-17.567-7.397-17.567-16.642v-91.533c0-10.17,7.396-17.567,17.567-17.567h185.839
				c9.246,0,16.643,8.321,16.643,17.567l0.924,248.711c0,4.623-3.698,12.02-7.396,14.794c0,0-95.231,60.097-229.296,60.097
				c-183.989,0-331.923-146.083-331.923-330.998C1115.792,603.183,1263.726,455.25,1447.715,455.25z"/>
		</g>
	</g>
</g>
</svg>
